<svg id="Layer_2" data-name="Layer 2" xmlns="http://www.w3.org/2000/svg" viewBox="0 0 600 600"><defs><style>.cls-1,.cls-3{fill:#3a1f54;}.cls-2{fill:#fff;}.cls-2,.cls-3{stroke:#3a1f54;stroke-miterlimit:10;}</style></defs><title>LOGO ABEM</title><circle class="cls-1" cx="213" cy="252" r="15"/><path class="cls-1" d="M186,308l9-23s2.63-9,8-13c4-3,12.3-5,21,0,7,4,14,27,14,27s-8,7-14,9S204,318,186,308Z"/><path class="cls-1" d="M183,315l-4,12s-4,11,8,14h51s13,0,10-14l-7-19S210,332,183,315Z"/><path class="cls-1" d="M181.92,290.88a.17.17,0,0,0-.32-.09L179,296s-5,8,4,18h0l2.67-5.33a.86.86,0,0,0-.31-1.12l-.31-.2a8.43,8.43,0,0,1-3.63-4.95A22.92,22.92,0,0,1,181,295,26.48,26.48,0,0,1,181.92,290.88Z"/><path class="cls-1" d="M238,299l3,8a24.8,24.8,0,0,0,10-13s3-5,0-12-11-10-11-10-11-4-15-2c0,0,9,1,12,3,2.35,1.57,7,5.53,7,10,0,2,1,5-3,11A35.79,35.79,0,0,0,238,299Z"/><path class="cls-1" d="M180.5,287.63a4.21,4.21,0,0,0,1.22-.2,3.89,3.89,0,0,0,1.09-.46,2.53,2.53,0,0,0,.84-.94,12,12,0,0,0,.55-1.56c.05-.15-.19-.22-.24-.06-.16.48-.29,1-.5,1.45a2.28,2.28,0,0,1-.82.92,3.78,3.78,0,0,1-1,.42,3.73,3.73,0,0,1-1.1.18c-.16,0-.16.24,0,.25Z"/><path class="cls-1" d="M184,284.48a3.34,3.34,0,0,0,.53,1.22,6.19,6.19,0,0,0,.82,1.07,4.31,4.31,0,0,0,2.12.85.12.12,0,0,0,.06-.24,4.08,4.08,0,0,1-2-.79,5.71,5.71,0,0,1-.77-1,3.46,3.46,0,0,1-.52-1.18c0-.16-.26-.1-.24.06Z"/><path class="cls-1" d="M180.47,287.62a8.62,8.62,0,0,1,2.3.91,3.87,3.87,0,0,1,1.28,2.39c0,.16.29.09.25-.07a4.27,4.27,0,0,0-1.33-2.49,8.11,8.11,0,0,0-2.44-1c-.15-.05-.22.19-.06.24Z"/><path class="cls-1" d="M184.32,291a8.19,8.19,0,0,1,.37-1.31,3.27,3.27,0,0,1,.66-1.18,2.57,2.57,0,0,1,1.06-.55,6.43,6.43,0,0,1,1.12-.31c.16,0,.09-.26-.06-.24a7.33,7.33,0,0,0-1.22.33,2.88,2.88,0,0,0-1.07.59,3.23,3.23,0,0,0-.69,1.19,7.6,7.6,0,0,0-.41,1.41c0,.16.21.23.24.07Z"/><path class="cls-1" d="M183.11,287.84a.5.5,0,0,0,0-1,.5.5,0,0,0,0,1Z"/><path class="cls-1" d="M183,287.92a7,7,0,0,0,1.36-1.65.5.5,0,0,0-.86-.5,3.74,3.74,0,0,1-.35.53l.08-.1a10,10,0,0,1-.94,1,.5.5,0,0,0,.71.71Z"/><path class="cls-1" d="M184,286.63a4.69,4.69,0,0,0,.57.52,8.07,8.07,0,0,1,.58.59.5.5,0,0,0,.71,0,.5.5,0,0,0,0-.7,6.6,6.6,0,0,0-.58-.6,4,4,0,0,1-.57-.52.52.52,0,0,0-.36-.14.5.5,0,0,0-.35.14.53.53,0,0,0-.15.36l0,.13a.5.5,0,0,0,.13.22Z"/><path class="cls-1" d="M184.55,287.13h0l.1.08,0,0,.08.1,0,0,.05.12,0-.16-.05-.2-.08-.39a.5.5,0,0,0-.23-.3.46.46,0,0,0-.38-.05.5.5,0,0,0-.3.23l-.05.12a.39.39,0,0,0,0,.26l.1.48a1.89,1.89,0,0,0,.05.23.56.56,0,0,0,.07.18.63.63,0,0,0,.23.23.28.28,0,0,0,.18.06.34.34,0,0,0,.2,0,.5.5,0,0,0,.3-.23.5.5,0,0,0,.05-.38l-.05-.12a.39.39,0,0,0-.18-.18Z"/><path class="cls-1" d="M184.58,285.83v-.09l-.86.36s.05,0,0,0a.56.56,0,0,0,.05.08c0-.08,0,.05,0,.07a.29.29,0,0,1,0,.09v0c0,.05,0,.1,0,.14,0,.31,0,.63,0,.94s0,.62,0,.93v.16a.31.31,0,0,0,0,.1c0-.06,0-.05,0,0s0,.14,0,.05a.56.56,0,0,1-.05.08s0,0,0,0l.78.11a4.23,4.23,0,0,1-.69-1.53.5.5,0,0,0-.91-.12l-.22.38a.53.53,0,0,0,.07.61l.3.33.6-.78-.78-.59a.51.51,0,0,0-.69.18.52.52,0,0,0,.18.68l.79.59a.48.48,0,0,0,.64-.13.49.49,0,0,0,0-.65l-.29-.34.08.61.22-.39-.91-.12a4.87,4.87,0,0,0,.79,1.77.5.5,0,0,0,.78.1,1.39,1.39,0,0,0,.38-1c0-.36,0-.73,0-1.09s0-.71,0-1.06a1.49,1.49,0,0,0-.4-1,.5.5,0,0,0-.85.35v.09a.5.5,0,0,0,1,0Z"/><path class="cls-1" d="M185.42,287.69h0l-.08.1h0l-.22.13a0,0,0,0,1,0,0l-.13,0h0l-.13,0h0l-.12-.06h0l-.1-.07h0l-.07-.1v0l-.05-.12v0l0-.14v0l0-.13,0,0,.06-.12-.24.43-.24.43.92.39a.24.24,0,0,1,0-.08l0,.12a.47.47,0,0,1,.06-.09l-.08.1a.67.67,0,0,1,.15-.14l-.1.08.31-.25c.07-.07.12-.15.19-.21l-.1.08a2.56,2.56,0,0,0,.48-.33.52.52,0,0,0,.14-.35.48.48,0,0,0-.5-.5.5.5,0,0,0-.35.14.13.13,0,0,1-.07.06l.1-.07c-.11.08-.24.14-.35.23a.73.73,0,0,0-.18.17.75.75,0,0,1-.16.15l.1-.08a2.78,2.78,0,0,0-.32.26,1,1,0,0,0-.26.44.58.58,0,0,0,0,.39.52.52,0,0,0,.24.2.5.5,0,0,0,.63-.2l.37-.68.09-.17a.58.58,0,0,0,0-.53.53.53,0,0,0-.37-.33.57.57,0,0,0-.29,0,.58.58,0,0,0-.31.25.5.5,0,0,0-.05.38.5.5,0,0,0,.23.3.51.51,0,0,0,.38.05.53.53,0,0,0,.3-.23Z"/><path class="cls-1" d="M185.9,287.89a1.13,1.13,0,0,0,.43-.13,3.17,3.17,0,0,1,.44-.12.12.12,0,0,0,.09-.14.14.14,0,0,0-.12-.11,1.47,1.47,0,0,1-.6-.23.12.12,0,0,0-.18.07.61.61,0,0,0,0,.19.28.28,0,0,0,0,.18.15.15,0,0,0,.2,0l.06,0h0l.3,0c.13,0,.26,0,.38-.06l-.15-.16,0,0h0a.13.13,0,0,0-.07.24.22.22,0,0,0,.28-.15.13.13,0,0,0-.15-.16,1.16,1.16,0,0,1-.45.05h-.19a.35.35,0,0,0-.11,0l-.05,0,0,0s0,0,0,0l.07,0h0l0,.05s0,0,0,0v-.18l-.18.07a1.66,1.66,0,0,0,.72.27l0-.24a3.25,3.25,0,0,0-.42.11l-.2.08a.31.31,0,0,1-.18.05.13.13,0,0,0-.13.13.12.12,0,0,0,.13.12Z"/><path class="cls-1" d="M183.85,289.48l.11.22a.76.76,0,0,1,0,.21,2.66,2.66,0,0,0,0,.49.13.13,0,0,0,.23,0c.09-.15,0-.31-.08-.44l-.23-.41-.11.19h0s0,0,0,0l.08,0a.3.3,0,0,0,.21,0,.3.3,0,0,0,.14-.11l.05-.06a0,0,0,0,0,0,0s0,0,0,0l-.15-.15a1.86,1.86,0,0,1-.13.46l.23.09.11-.29.05-.15,0,0h0l-.15,0,0,.06-.2.62.24,0v-.2a.13.13,0,0,0-.25,0v.2a.13.13,0,0,0,.25,0l.14-.42.07-.2a.29.29,0,0,0,0-.24.16.16,0,0,0-.22,0,.31.31,0,0,0-.11.2l-.15.4c-.05.13.17.22.23.09a2.1,2.1,0,0,0,.15-.52.14.14,0,0,0,0-.12.13.13,0,0,0-.12,0,.4.4,0,0,0-.15.1l0,.06,0,0h0l0,0a.3.3,0,0,0-.19-.05.13.13,0,0,0-.1.19l.19.34.09.17,0,.06s0,0,0,0,0,0,0,0l.23,0a2.26,2.26,0,0,1,0-.45.64.64,0,0,0,0-.24c0-.08-.07-.15-.1-.23a.14.14,0,0,0-.16-.08.13.13,0,0,0-.09.15Z"/><path class="cls-1" d="M182.53,287.88a6.59,6.59,0,0,0-1.25-.43v.24l.93-.24-.14-.18-.07.14,0,.07,0,.06.05,0h0l0,0-.08,0h-.17a.13.13,0,0,0,0,.25h.37a.13.13,0,0,0,0-.25h-.37v.25a.44.44,0,0,1,.16,0,.32.32,0,0,0,.19,0c.07,0,.1-.09.13-.16l.09-.2a.12.12,0,0,0-.14-.18c-.31.07-.62.15-.92.24a.12.12,0,0,0,0,.24,5.5,5.5,0,0,1,1.18.41c.15.07.27-.15.13-.22Z"/><path class="cls-1" d="M184.4,285.38a.83.83,0,0,1-.07-.13.21.21,0,0,1,0-.07s0,0,0,0v0a1.37,1.37,0,0,1-.07-.29.15.15,0,0,0-.11-.09.14.14,0,0,0-.12.06,3,3,0,0,0-.2.49.12.12,0,0,0,.07.14.12.12,0,0,0,.16-.05s0,0,0,0l0,0,0,0h0a.12.12,0,0,0,.05-.17.13.13,0,0,0-.17,0,.41.41,0,0,0-.16.16l.23.09a2,2,0,0,1,.08-.22s0,0,0,0v0l0-.06.06-.11-.23,0a1.32,1.32,0,0,0,.22.58.13.13,0,0,0,.17.05.13.13,0,0,0,0-.17Z"/><path class="cls-1" d="M294.5,340.5s14,0,19-18c0,0,2-16-10-19,0,0,10-14-3-28,0,0-5-6-16-6h-20s-8,1-10,9v54s5,9,10,8Z"/><path class="cls-2" d="M272.5,283.5v16s15,0,14-1c0,0,7.49-4.76,3.37-10.92a9.53,9.53,0,0,0-8-4.08Z"/><path class="cls-2" d="M273.5,311.5v15h8.88a9.76,9.76,0,0,0,7.72-3.58,5.89,5.89,0,0,0,.61-7,9,9,0,0,0-7.93-4.43Z"/><path class="cls-1" d="M316.75,331.83a.13.13,0,0,0,0-.25.13.13,0,0,0,0,.25Z"/><path class="cls-1" d="M316.49,277.32a.13.13,0,0,0,0-.25.13.13,0,0,0,0,.25Z"/><path class="cls-3" d="M317.4,327.67c.07,3.07-.1,6.69,2.1,8.83,2.38,2.31,7,4,12,4h22.74a12,12,0,0,0,8.76-3.62c2-2.13,3.5-5.38,1.5-10.38,0,0-1-7.81-22.23-5.1A1.58,1.58,0,0,1,341,321h0a1.55,1.55,0,0,1-.46-1.11v-6.34h13.76a9.25,9.25,0,0,0,7.49-3.62c1.75-2.38,3.75-5.88.75-10.38,0,0-2-6-22-4h0v-6h17c.36-.1,11.37-3,6.17-16.59-.11-.29-.41-.44-.56-.7-1.61-2.71-7.61-2.71-15.47-2.74l-.28,0H326.5s-9-1-10,13C315.71,293.63,317.17,318.39,317.4,327.67Z"/><path class="cls-3" d="M369.59,329.94l8.33-49.05a13.07,13.07,0,0,1,3.78-7.25c3.15-3,8.55-6.45,15.74-4.39a12,12,0,0,1,7.5,6.45,86.88,86.88,0,0,1,4.56,12.8c4,14,5,15,5,15l7-24s1.27-9.06,10-11c9-2,14,3,14,3s5,2,6,16h0l7,42a10.53,10.53,0,0,1-5,10c-6,4-14,0-16-4s-4-32-4-32,0-1-1,0-7.88,25.48-9.61,31.62a8.29,8.29,0,0,1-1.74,3.24c-2,2.34-6.35,5.57-12.37,1.12a8.48,8.48,0,0,1-3-4.22L395.5,303.5s-1-1-1,0-3,29-3,29-1,9-12,8c-8.66-.79-9.88-6.54-10-8.94A7.35,7.35,0,0,1,369.59,329.94Z"/></svg>