<?xml version="1.0" encoding="utf-8"?>
<!-- Generator: Adobe Illustrator 24.0.1, SVG Export Plug-In . SVG Version: 6.00 Build 0)  -->
<svg version="1.1" xmlns="http://www.w3.org/2000/svg" xmlns:xlink="http://www.w3.org/1999/xlink" x="0px" y="0px"
	 viewBox="0 0 600 600" style="enable-background:new 0 0 600 600;" xml:space="preserve">
<style type="text/css">
	.st0{display:none;}
	.st1{fill:#3A1F54;}
	.st2{fill:none;stroke:#3A1F54;stroke-miterlimit:10;}
	.st3{fill:#3A1F54;stroke:#3A1F54;stroke-miterlimit:10;}
</style>
<g id="Layer_1" class="st0">
	
		<image style="display:inline;overflow:visible;opacity:0.64;" width="1599" height="899" xlink:href="../Downloads/WhatsApp Image 2022-05-17 at 9.49.28 AM.jpeg"  transform="matrix(0.2503 0 0 0.2503 118 188)">
	</image>
</g>
<g id="Layer_2">
	<circle class="st1" cx="213" cy="252" r="15"/>
	<path class="st1" d="M186,308l9-23c0,0,2.6-9,8-13c4-3,12.3-5,21,0c7,4,14,27,14,27s-8,7-14,9S204,318,186,308z"/>
	<path class="st1" d="M183,315l-4,12c0,0-4,11,8,14h51c0,0,13,0,10-14l-7-19C241,308,210,332,183,315z"/>
	<path class="st1" d="M181.9,290.9c0-0.2-0.2-0.3-0.3-0.1L179,296c0,0-5,8,4,18c0,0,0,0,0,0l2.7-5.3c0.2-0.4,0.1-0.9-0.3-1.1
		l-0.3-0.2c-1.8-1.2-3.1-2.9-3.6-5c-0.6-2.4-0.6-5.1-0.4-7.4C181,294,181.9,290.9,181.9,290.9z"/>
	<path class="st1" d="M238,299l3,8c0,0,7-4,10-13c0,0,3-5,0-12s-11-10-11-10s-11-4-15-2c0,0,9,1,12,3c2.4,1.6,7,5.5,7,10
		c0,2,1,5-3,11C238.5,297.7,238,299,238,299z"/>
	<g>
		<g>
			<path class="st1" d="M180.5,287.6c0.4,0,0.8-0.1,1.2-0.2c0.4-0.1,0.8-0.2,1.1-0.5c0.4-0.2,0.7-0.6,0.8-0.9c0.2-0.5,0.4-1,0.6-1.6
				c0.1-0.2-0.2-0.2-0.2-0.1c-0.2,0.5-0.3,1-0.5,1.4c-0.2,0.4-0.5,0.7-0.8,0.9c-0.3,0.2-0.7,0.3-1,0.4c-0.4,0.1-0.7,0.2-1.1,0.2
				C180.3,287.4,180.3,287.6,180.5,287.6L180.5,287.6z"/>
		</g>
	</g>
	<g>
		<g>
			<path class="st1" d="M184,284.5c0.1,0.4,0.3,0.8,0.5,1.2c0.2,0.4,0.5,0.8,0.8,1.1c0.6,0.6,1.4,0.7,2.1,0.8c0.2,0,0.2-0.2,0.1-0.2
				c-0.7-0.2-1.5-0.3-2-0.8c-0.3-0.3-0.5-0.6-0.8-1c-0.2-0.4-0.4-0.7-0.5-1.2C184.2,284.3,184,284.3,184,284.5L184,284.5z"/>
		</g>
	</g>
	<g>
		<g>
			<path class="st1" d="M180.5,287.6c0.8,0.3,1.6,0.4,2.3,0.9c0.8,0.5,1.1,1.5,1.3,2.4c0,0.2,0.3,0.1,0.2-0.1
				c-0.2-0.9-0.5-1.9-1.3-2.5c-0.7-0.5-1.6-0.7-2.4-1C180.4,287.3,180.3,287.6,180.5,287.6L180.5,287.6z"/>
		</g>
	</g>
	<g>
		<g>
			<path class="st1" d="M184.3,291c0.1-0.4,0.2-0.9,0.4-1.3c0.2-0.4,0.3-0.9,0.7-1.2c0.3-0.3,0.7-0.4,1.1-0.6
				c0.4-0.1,0.7-0.2,1.1-0.3c0.2,0,0.1-0.3-0.1-0.2c-0.4,0.1-0.8,0.2-1.2,0.3c-0.4,0.1-0.8,0.3-1.1,0.6c-0.3,0.3-0.5,0.8-0.7,1.2
				c-0.2,0.5-0.3,0.9-0.4,1.4C184.1,291.1,184.3,291.1,184.3,291L184.3,291z"/>
		</g>
	</g>
	<g>
		<g>
			<path class="st1" d="M183.1,287.8c0.6,0,0.6-1,0-1C182.5,286.8,182.5,287.8,183.1,287.8L183.1,287.8z"/>
		</g>
	</g>
	<g>
		<g>
			<path class="st1" d="M183,287.9c0.5-0.5,1-1,1.4-1.6c0.1-0.2,0.1-0.6-0.2-0.7c-0.2-0.1-0.6-0.1-0.7,0.2c-0.1,0.2-0.2,0.4-0.3,0.5
				c0,0,0.1-0.1,0.1-0.1c-0.3,0.4-0.6,0.7-0.9,1c-0.2,0.2-0.2,0.5,0,0.7C182.5,288.1,182.8,288.1,183,287.9L183,287.9z"/>
		</g>
	</g>
	<g>
		<g>
			<path class="st1" d="M184,286.6c0.2,0.2,0.4,0.3,0.6,0.5c0.2,0.2,0.4,0.4,0.6,0.6c0.2,0.2,0.5,0.2,0.7,0c0.2-0.2,0.2-0.5,0-0.7
				c-0.2-0.2-0.4-0.4-0.6-0.6c-0.2-0.2-0.4-0.3-0.6-0.5c-0.1-0.1-0.2-0.1-0.4-0.1c-0.1,0-0.3,0.1-0.4,0.1c-0.1,0.1-0.2,0.2-0.1,0.4
				c0,0,0,0.1,0,0.1C183.9,286.5,183.9,286.6,184,286.6L184,286.6z"/>
		</g>
	</g>
	<g>
		<g>
			<path class="st1" d="M184.6,287.1C184.5,287.1,184.5,287.1,184.6,287.1C184.6,287.1,184.6,287.2,184.6,287.1
				C184.6,287.2,184.6,287.2,184.6,287.1c0.1,0.1,0.1,0.1,0.1,0.1c0,0,0,0,0,0c0,0,0,0.1,0.1,0.1c0-0.1,0-0.1,0-0.2
				c0-0.1,0-0.1,0-0.2c0-0.1-0.1-0.3-0.1-0.4c0-0.1-0.1-0.2-0.2-0.3c-0.1-0.1-0.3-0.1-0.4-0.1c-0.1,0-0.2,0.1-0.3,0.2
				c0,0,0,0.1-0.1,0.1c0,0.1,0,0.2,0,0.3c0,0.2,0.1,0.3,0.1,0.5c0,0.1,0,0.2,0,0.2c0,0.1,0,0.1,0.1,0.2c0.1,0.1,0.1,0.2,0.2,0.2
				c0.1,0,0.1,0.1,0.2,0.1c0.1,0,0.1,0,0.2,0c0.1,0,0.2-0.1,0.3-0.2c0.1-0.1,0.1-0.3,0.1-0.4c0,0,0-0.1-0.1-0.1
				C184.7,287.2,184.6,287.2,184.6,287.1L184.6,287.1z"/>
		</g>
	</g>
	<g>
		<g>
			<path class="st1" d="M184.6,285.8C184.6,285.8,184.6,285.8,184.6,285.8c-0.3,0-0.6,0.1-0.8,0.3c0,0,0,0,0,0c0,0,0,0.1,0,0.1
				c0-0.1,0,0.1,0,0.1c0,0,0,0.1,0,0.1c0-0.1,0,0,0,0c0,0,0,0.1,0,0.1c0,0.3,0,0.6,0,0.9c0,0.3,0,0.6,0,0.9c0,0.1,0,0.1,0,0.2
				c0,0,0,0.1,0,0.1c0-0.1,0,0,0,0c0,0,0,0.1,0,0.1c0,0,0,0.1,0,0.1c0,0,0,0,0,0c0.3,0,0.5,0.1,0.8,0.1c-0.3-0.5-0.6-1-0.7-1.5
				c-0.1-0.4-0.7-0.5-0.9-0.1c-0.1,0.1-0.1,0.3-0.2,0.4c-0.1,0.2-0.1,0.4,0.1,0.6c0.1,0.1,0.2,0.2,0.3,0.3c0.2-0.3,0.4-0.5,0.6-0.8
				c-0.3-0.2-0.5-0.4-0.8-0.6c-0.2-0.2-0.6,0-0.7,0.2c-0.1,0.3,0,0.5,0.2,0.7c0.3,0.2,0.5,0.4,0.8,0.6c0.2,0.1,0.5,0.1,0.6-0.1
				c0.2-0.2,0.1-0.5,0-0.7c-0.1-0.1-0.2-0.2-0.3-0.3c0,0.2,0.1,0.4,0.1,0.6c0.1-0.1,0.1-0.3,0.2-0.4c-0.3,0-0.6-0.1-0.9-0.1
				c0.1,0.6,0.4,1.2,0.8,1.8c0.2,0.3,0.5,0.3,0.8,0.1c0.3-0.2,0.4-0.6,0.4-1c0-0.4,0-0.7,0-1.1c0-0.4,0-0.7-0.1-1.1
				c0-0.4-0.1-0.7-0.4-1c-0.3-0.3-0.8-0.1-0.9,0.4c0,0,0,0.1,0,0.1c0,0.3,0.2,0.5,0.5,0.5C184.4,286.3,184.6,286.1,184.6,285.8
				L184.6,285.8z"/>
		</g>
	</g>
	<g>
		<g>
			<path class="st1" d="M185.4,287.7C185.4,287.7,185.4,287.7,185.4,287.7C185.4,287.7,185.4,287.8,185.4,287.7
				C185.4,287.8,185.4,287.8,185.4,287.7c-0.1,0.1-0.2,0.2-0.3,0.2c0,0,0,0,0,0c0,0-0.1,0-0.1,0c0,0,0,0,0,0c0,0-0.1,0-0.1,0
				c0,0,0,0,0,0c0,0-0.1,0-0.1-0.1c0,0,0,0,0,0c0,0-0.1-0.1-0.1-0.1c0,0,0,0,0,0c0,0-0.1-0.1-0.1-0.1c0,0,0,0,0,0c0,0,0-0.1-0.1-0.1
				c0,0,0,0,0,0c0,0,0-0.1,0-0.1c0,0,0,0,0,0c0,0,0-0.1,0-0.1c0,0,0,0,0,0c0,0,0-0.1,0.1-0.1c-0.1,0.1-0.2,0.3-0.2,0.4
				c-0.1,0.1-0.2,0.3-0.2,0.4c0.3,0.1,0.6,0.3,0.9,0.4c0,0,0,0,0-0.1c0,0,0,0.1-0.1,0.1c0,0,0-0.1,0.1-0.1c0,0-0.1,0.1-0.1,0.1
				c0-0.1,0.1-0.1,0.1-0.1c0,0-0.1,0.1-0.1,0.1c0.1-0.1,0.2-0.2,0.3-0.2c0.1-0.1,0.1-0.1,0.2-0.2c0,0-0.1,0.1-0.1,0.1
				c0.2-0.1,0.3-0.2,0.5-0.3c0.1-0.1,0.1-0.2,0.1-0.4c0-0.1-0.1-0.3-0.1-0.4c-0.1-0.1-0.2-0.2-0.4-0.1c-0.1,0-0.3,0-0.4,0.1
				c0,0,0,0-0.1,0.1c0,0,0.1-0.1,0.1-0.1c-0.1,0.1-0.2,0.1-0.4,0.2c-0.1,0.1-0.1,0.1-0.2,0.2c0,0.1-0.1,0.1-0.2,0.1
				c0,0,0.1-0.1,0.1-0.1c-0.1,0.1-0.2,0.2-0.3,0.3c-0.1,0.1-0.2,0.3-0.3,0.4c0,0.1,0,0.3,0.1,0.4c0.1,0.1,0.1,0.2,0.2,0.2
				c0.2,0.1,0.5,0,0.6-0.2c0.1-0.2,0.2-0.5,0.4-0.7c0-0.1,0.1-0.1,0.1-0.2c0.1-0.2,0.1-0.4,0-0.5c-0.1-0.2-0.2-0.3-0.4-0.3
				c-0.1,0-0.2,0-0.3,0c-0.1,0-0.2,0.1-0.3,0.2c-0.1,0.1-0.1,0.3-0.1,0.4c0,0.1,0.1,0.2,0.2,0.3c0.1,0.1,0.3,0.1,0.4,0.1
				C185.3,287.9,185.3,287.8,185.4,287.7L185.4,287.7z"/>
		</g>
	</g>
	<g>
		<g>
			<path class="st1" d="M185.9,287.9c0.2,0,0.3-0.1,0.4-0.1c0.1-0.1,0.3-0.1,0.4-0.1c0.1,0,0.1-0.1,0.1-0.1c0-0.1-0.1-0.1-0.1-0.1
				c-0.2,0-0.4-0.1-0.6-0.2c-0.1,0-0.2,0-0.2,0.1c0,0.1,0,0.1,0,0.2c0,0.1,0,0.1,0,0.2c0.1,0.1,0.1,0.1,0.2,0c0,0,0,0,0.1,0
				c0,0,0,0,0,0c0.1,0,0.2,0,0.3,0c0.1,0,0.3,0,0.4-0.1c-0.1-0.1-0.1-0.1-0.2-0.2c0,0,0,0,0,0c0,0,0,0,0,0c-0.2,0-0.2,0.2-0.1,0.2
				c0.1,0,0.2,0,0.3-0.2c0-0.1-0.1-0.2-0.2-0.2c-0.1,0-0.3,0.1-0.5,0.1c-0.1,0-0.1,0-0.2,0c0,0-0.1,0-0.1,0c0,0,0,0,0,0c0,0,0,0,0,0
				c0,0,0,0,0,0c0,0,0,0,0.1,0c0,0,0,0,0,0c0,0,0,0,0,0c0,0,0,0,0,0c0,0,0,0,0,0c0,0,0,0,0-0.1c0,0,0-0.1,0-0.1
				c-0.1,0-0.1,0-0.2,0.1c0.2,0.1,0.5,0.3,0.7,0.3c0-0.1,0-0.2,0-0.2c-0.1,0-0.3,0.1-0.4,0.1c-0.1,0-0.1,0.1-0.2,0.1
				c-0.1,0-0.1,0.1-0.2,0c-0.1,0-0.1,0.1-0.1,0.1C185.8,287.8,185.8,287.9,185.9,287.9L185.9,287.9z"/>
		</g>
	</g>
	<g>
		<g>
			<path class="st1" d="M183.9,289.5c0,0.1,0.1,0.1,0.1,0.2c0,0.1,0,0.1,0,0.2c0,0.2,0,0.3,0,0.5c0,0.1,0.2,0.1,0.2,0
				c0.1-0.2,0-0.3-0.1-0.4C184.1,289.9,184,289.7,183.9,289.5c0,0.2,0,0.2,0,0.3c0,0,0,0,0,0c0,0,0,0,0,0c0,0,0,0,0,0c0,0,0,0,0.1,0
				c0.1,0,0.1,0,0.2,0c0.1,0,0.1-0.1,0.1-0.1c0,0,0,0,0-0.1c0,0,0,0,0,0c0,0,0,0,0,0c-0.1-0.1-0.1-0.1-0.2-0.2
				c0,0.2-0.1,0.3-0.1,0.5c0.1,0,0.2,0.1,0.2,0.1c0-0.1,0.1-0.2,0.1-0.3c0,0,0-0.1,0.1-0.1c0,0,0,0,0,0c0,0,0,0,0,0
				c-0.1,0-0.1,0-0.2,0c0,0,0,0,0,0.1c-0.1,0.2-0.1,0.4-0.2,0.6c0.1,0,0.2,0,0.2,0c0-0.1,0-0.1,0-0.2c0-0.2-0.3-0.2-0.3,0
				c0,0.1,0,0.1,0,0.2c0,0.1,0.2,0.2,0.2,0c0-0.1,0.1-0.3,0.1-0.4c0-0.1,0-0.1,0.1-0.2c0-0.1,0-0.2,0-0.2c-0.1-0.1-0.1-0.1-0.2,0
				c-0.1,0-0.1,0.1-0.1,0.2c-0.1,0.1-0.1,0.3-0.2,0.4c0,0.1,0.2,0.2,0.2,0.1c0.1-0.2,0.1-0.3,0.2-0.5c0,0,0-0.1,0-0.1
				c0,0-0.1,0-0.1,0c-0.1,0-0.1,0.1-0.1,0.1c0,0,0,0,0,0.1c0,0,0,0,0,0c0,0,0,0,0,0c0,0,0,0,0,0c0,0,0,0,0,0c0,0,0,0,0,0
				c0,0,0,0,0,0c0,0,0,0,0,0c0,0,0,0,0,0c0,0,0,0,0,0C183.9,289.5,183.9,289.5,183.9,289.5c-0.1,0-0.2,0.1-0.1,0.2
				c0.1,0.1,0.1,0.2,0.2,0.3c0,0.1,0.1,0.1,0.1,0.2c0,0,0,0,0,0.1c0,0,0,0,0,0c0,0,0,0,0,0c0.1,0,0.2,0,0.2,0c0-0.1,0-0.3,0-0.5
				c0-0.1,0-0.2,0-0.2c0-0.1-0.1-0.1-0.1-0.2c0-0.1-0.1-0.1-0.2-0.1C183.9,289.3,183.8,289.4,183.9,289.5L183.9,289.5z"/>
		</g>
	</g>
	<g>
		<g>
			<path class="st1" d="M182.5,287.9c-0.4-0.2-0.8-0.3-1.2-0.4c0,0.1,0,0.2,0,0.2c0.3-0.1,0.6-0.2,0.9-0.2c0-0.1-0.1-0.1-0.1-0.2
				c0,0,0,0.1-0.1,0.1c0,0,0,0,0,0.1c0,0,0,0.1,0,0.1c0,0,0,0,0.1,0c0,0,0,0,0,0c0,0,0,0,0,0c0,0-0.1,0-0.1,0c-0.1,0-0.1,0-0.2,0
				c-0.2,0-0.2,0.3,0,0.3c0.1,0,0.2,0,0.4,0c0.2,0,0.2-0.3,0-0.3c-0.1,0-0.2,0-0.4,0c0,0.1,0,0.2,0,0.3c0.1,0,0.1,0,0.2,0
				c0.1,0,0.1,0.1,0.2,0c0.1,0,0.1-0.1,0.1-0.2c0-0.1,0.1-0.1,0.1-0.2c0-0.1,0-0.2-0.1-0.2c-0.3,0.1-0.6,0.2-0.9,0.2
				c-0.1,0-0.1,0.2,0,0.2c0.4,0.1,0.8,0.2,1.2,0.4C182.5,288.2,182.7,288,182.5,287.9L182.5,287.9z"/>
		</g>
	</g>
	<g>
		<g>
			<path class="st1" d="M184.4,285.4c0,0-0.1-0.1-0.1-0.1c0,0,0,0,0-0.1c0,0,0,0,0,0c0,0,0,0,0,0c0-0.1-0.1-0.2-0.1-0.3
				c0,0-0.1-0.1-0.1-0.1c0,0-0.1,0-0.1,0.1c-0.1,0.2-0.1,0.3-0.2,0.5c0,0.1,0,0.1,0.1,0.1c0.1,0,0.1,0,0.2-0.1c0,0,0,0,0,0
				c0,0,0,0,0,0c0,0,0,0,0,0c0,0,0,0,0,0c0,0,0,0,0,0c0.1,0,0.1-0.1,0-0.2c0-0.1-0.1-0.1-0.2,0c-0.1,0-0.1,0.1-0.2,0.2
				c0.1,0,0.2,0.1,0.2,0.1c0-0.1,0.1-0.2,0.1-0.2c0,0,0,0,0,0c0,0,0,0,0,0c0,0,0,0,0-0.1c0,0,0-0.1,0.1-0.1c-0.1,0-0.2,0-0.2,0
				c0,0.2,0.1,0.4,0.2,0.6c0,0.1,0.1,0.1,0.2,0C184.4,285.5,184.4,285.4,184.4,285.4L184.4,285.4z"/>
		</g>
	</g>
	<g>
		<path class="st1" d="M303.5,303.5c0,0,10-14-3-28c0,0-5-6-16-6s-20,0-20,0s-8,1-10,9v54c0,0,5,9,10,8h30c0,0,14,0,19-18
			C313.5,322.5,315.5,306.5,303.5,303.5z M272.6,298.1c0-0.1,0.1-0.1,0.1-0.2c-0.1-0.3-0.1-0.6,0-0.8c-0.6-1.3-0.6-2.9-0.6-4.2
			c0-1.1,0-2.2,0-3.4c0-0.7,0.1-1.3,0.3-1.9c0.2-0.6,0.3-1.2,0.3-1.8c0-0.1,0-0.1,0-0.2c-0.3-0.1-0.6-0.3-0.7-0.7
			c0-0.1,0-0.2-0.1-0.3c-0.2-0.6,0.3-1.3,1-1.3c1.3,0,2.6,0.4,4,0.4c1,0,2,0,3,0c1.6-0.5,3.4-0.3,5,0.4c0.1,0,0.1,0,0.2,0
			c0.9,0.2,1.5,0.9,2.2,1.4c0.4-0.2,0.9-0.1,1.2,0.4c0.6,0.9,1.3,1.6,1.6,2.6c0.4,0.2,0.7,0.6,0.6,1.1c0.4,0.4,0.6,0.9,0.7,1.6
			c0.1,1.3-0.7,2.6-1.5,3.6c-0.5,0.7-1,1.3-1.7,1.9c-0.1,0.2-0.3,0.5-0.4,0.7c0,0.1,0,0.2-0.1,0.4c0,0.1-0.1,0.2-0.2,0.3
			c-0.1,0.1-0.2,0.1-0.2,0.2c0,0.1,0,0.2-0.1,0.3c0,0.1-0.1,0.2-0.2,0.3c-0.1,0.1-0.2,0.1-0.3,0.2c0,0,0,0,0,0c0,0,0,0,0,0
			c0,0,0,0,0,0c-0.1,0-0.2,0.1-0.3,0.1c-0.2,0-0.4,0-0.5,0c0,0-0.1,0-0.1-0.1c-0.1,0-0.2-0.1-0.2-0.1c-0.5,0-1,0-1.5,0
			c-0.1,0-0.1,0-0.2,0c-0.1,0.1-0.2,0.2-0.3,0.3c-0.4,0.2-0.7,0.2-1.1,0.3c-0.3,0.1-0.6,0-0.8-0.2c-0.1,0.1-0.3,0.2-0.4,0.2
			c-0.1,0-0.2,0-0.3,0c-0.1,0-0.3,0-0.4-0.1c-0.1,0-0.2-0.1-0.3-0.2c-0.1-0.1-0.1-0.2-0.2-0.3c-0.5,0.2-0.9,0.3-1.4,0.2
			c-0.1,0-0.1,0.1-0.2,0.1c-0.8,0.2-1.7,0.2-2.5,0.2c-0.4,0-0.8-0.1-1.2-0.1c-0.2,0-0.4,0-0.6,0c-0.1,0-0.2,0-0.3,0c0.1,0,0.2,0,0,0
			c0,0-0.1,0-0.1,0c-0.4,0.1-0.8,0-1.1-0.4C272.4,298.9,272.4,298.5,272.6,298.1z M291.9,320.3c-0.2,0.4-0.6,1-1,1.4c0,0,0,0,0,0
			c-1,1.5-2.5,2.9-4.3,3.6c-0.1,0.1-0.2,0.2-0.3,0.3c0.2-0.2,0.1,0,0,0c-0.1,0.1-0.2,0.1-0.3,0.2c-0.1,0.1-0.2,0.1-0.3,0.2
			c-0.3,0.1-0.5,0.2-0.8,0.1c0,0,0,0,0,0c-0.1,0.1-0.2,0.3-0.4,0.3c-0.6,0.3-1.3,0.2-1.7-0.3c-0.1,0.1-0.1,0.1-0.2,0.2
			c-0.6,0.6-1.6,0.6-2.2,0c-0.5,0.5-1.2,0.7-1.9,0.3c-0.2-0.1-0.4-0.3-0.5-0.5c-0.5,0.5-1.2,0.6-1.9,0.2c-0.1-0.1-0.2-0.1-0.3-0.2
			c0,0,0,0,0,0c-0.3,0.5-1.1,0.7-1.6,0.2c-0.9-1-0.7-2.4-0.7-3.6c0-0.7-0.2-1.4-0.3-2c-0.1-0.8-0.2-1.6-0.3-2.4c0-0.7-0.1-1.4,0.1-2
			c0.1-0.3,0.3-0.6,0.5-0.8c0-0.3-0.1-0.6,0-0.9c-0.1-0.2-0.2-0.4-0.2-0.6c0-0.2,0.1-0.4,0.1-0.6c-0.4-0.6-0.2-1.7,0.7-1.6
			c0.3,0,0.6,0,0.9,0.1c0.7-0.2,1.5-0.1,2.3-0.1c0.6,0,1.1,0,1.7,0.1c1.5-0.4,3-0.3,4.5,0c0.1-0.1,0.2-0.2,0.3-0.3
			c0.1,0,0.2-0.1,0.2-0.1c0.3-0.1,0.5,0,0.8,0.1c0.2,0.1,0.3,0.3,0.4,0.5c0.2,0.1,0.5,0.2,0.7,0.3c0.2,0.1,0.4,0.2,0.6,0.4
			c0.3-0.3,0.9-0.4,1.4,0c0.2,0.1,0.3,0.3,0.5,0.5c1,1,2.3,2.1,2.1,3.6c0.4,0.1,0.8,0.5,0.8,0.9c0,0.4,0,0.8-0.1,1.2
			C291.8,319,292.2,319.6,291.9,320.3z"/>
		<g>
			<path class="st1" d="M303.6,303.6c0.5-0.7,0.9-1.6,1.3-2.4c0.9-1.9,1.6-4,2-6.1c0.5-2.9,0.5-5.8-0.2-8.7c-0.9-3.7-2.7-7-5.1-9.9
				c-0.8-1-1.7-1.9-2.7-2.7c-1.8-1.4-3.9-2.5-6.1-3.2c-1.5-0.5-3.1-0.9-4.7-1.1c-2.1-0.3-4.2-0.2-6.3-0.2c-3.9,0-7.7,0-11.6,0
				c-1.9,0-3.8,0-5.6,0c-0.8,0-1.7,0.3-2.4,0.6c-2.1,0.8-4,2-5.4,3.7c-0.9,1.1-1.6,2.3-2,3.6c-0.2,0.4-0.3,0.9-0.3,1.3
				c0,1.9,0,3.9,0,5.8c0,3.8,0,7.7,0,11.5c0,4.6,0,9.3,0,13.9c0,4.3,0,8.6,0,12.8c0,2.8,0,5.6,0,8.3c0,0.4-0.1,1,0,1.4
				c0,0.3,0.3,0.5,0.4,0.8c0.5,0.8,1,1.6,1.6,2.4c1.5,1.9,3.3,4,5.7,4.8c0.5,0.2,1.1,0.3,1.6,0.3c0.3,0,0.6-0.1,0.9-0.1
				c0.3,0,0.5,0,0.8,0c3.4,0,6.9,0,10.3,0c4.4,0,8.9,0,13.3,0c1.9,0,3.8,0.1,5.6,0c2.3-0.1,4.6-0.8,6.6-1.8c4.4-2.1,7.8-5.8,10-10.1
				c0.8-1.5,1.4-3,1.9-4.6c0.2-0.6,0.5-1.3,0.5-2c0.1-1.2,0.1-2.4,0.1-3.5c-0.2-4.1-1.2-8.5-4-11.6c-1.6-1.8-3.8-3-6.2-3.6
				c-0.2,0-0.2,0.2-0.1,0.2c2.5,0.6,4.7,1.9,6.3,3.9c1.4,1.7,2.3,3.8,2.9,5.9c0.8,2.9,1,5.9,0.7,8.9c0,0.1,0,0.1,0,0.2
				c-0.2,0.8-0.5,1.7-0.8,2.5c-0.6,1.5-1.2,3.1-2,4.5c-1.3,2.3-2.9,4.4-4.9,6.1c-2.6,2.3-5.8,3.9-9.2,4.5c-1.1,0.2-2.2,0.2-3.4,0.2
				c-3.7,0-7.3,0-11,0c-4.3,0-8.6,0-12.9,0c-1.3,0-2.6,0-3.9,0c-0.2,0-0.5,0-0.7,0c-0.3,0-0.6,0.1-1,0.1c-0.6,0-1.2-0.2-1.7-0.4
				c-2.3-1-4.1-3.1-5.5-5c-0.5-0.7-1-1.4-1.4-2.2c-0.1-0.1-0.2-0.3-0.2-0.4c0,0,0,0.1,0,0c0-1.7,0-3.4,0-5.1c0-3.7,0-7.3,0-11
				c0-4.5,0-9.1,0-13.6c0-4.3,0-8.6,0-12.9c0-3,0-6.1,0-9.1c0-0.7,0-1.4,0-2c0-0.3,0.1-0.6,0.2-0.9c0.4-1.4,1.1-2.8,2.1-3.9
				c1.4-1.7,3.3-3,5.4-3.7c0.6-0.2,1.2-0.4,1.8-0.5c0.2,0,0.3-0.1,0.5-0.1c5.6,0,11.3,0,16.9,0c2.1,0,4.1-0.1,6.2,0.2
				c1.6,0.2,3.3,0.5,4.9,1.1c2.2,0.7,4.3,1.8,6.1,3.2c1,0.8,1.8,1.7,2.7,2.7c2.4,2.9,4.3,6.3,5.1,10.1c1.1,4.9,0.3,10.1-2,14.6
				c-0.4,0.7-0.7,1.4-1.2,2.1C303.3,303.6,303.5,303.7,303.6,303.6z"/>
			<path class="st1" d="M272.7,298.2c0-0.1,0.1-0.1,0.1-0.2c0-0.1,0-0.2,0-0.3c0-0.1,0-0.2,0-0.3c0-0.1,0.1-0.2,0.1-0.3
				c0-0.1-0.1-0.2-0.1-0.2c0-0.1-0.1-0.2-0.1-0.3c-0.1-0.2-0.1-0.4-0.2-0.6c-0.2-0.8-0.2-1.6-0.2-2.4c0-0.8,0-1.7,0-2.5
				c0-0.9,0-1.8,0.2-2.7c0.1-0.5,0.2-0.9,0.3-1.4c0.1-0.2,0.1-0.4,0.1-0.7c0-0.2,0-0.5,0.1-0.7c0-0.1,0-0.1-0.1-0.2
				c-0.2,0-0.4-0.2-0.5-0.4c-0.1-0.2-0.2-0.5-0.2-0.7c0-0.4,0.4-0.8,0.8-0.9c0.6,0,1.3,0.1,1.9,0.2c0.6,0.1,1.2,0.2,1.9,0.2
				c0.7,0,1.3,0,2,0c0.3,0,0.7,0,1,0c0.2,0,0.3,0,0.4,0c0.1,0,0.3-0.1,0.4-0.1c1.2-0.2,2.4-0.1,3.6,0.3c0.1,0,0.3,0.1,0.4,0.1
				c0.1,0.1,0.3,0.1,0.4,0.1c0.3,0,0.5,0.1,0.8,0.3c0.4,0.2,0.8,0.6,1.2,0.9c0.1,0.1,0.2,0.2,0.3,0.2c0.1,0,0.2,0,0.3,0
				c0.2,0,0.4,0,0.6,0.1c0.2,0.1,0.4,0.4,0.5,0.6c0.2,0.2,0.3,0.4,0.5,0.7c0.3,0.4,0.7,0.9,0.8,1.4c0,0.1,0.1,0.2,0.2,0.3
				c0.1,0.1,0.2,0.1,0.3,0.2c0.2,0.2,0.2,0.4,0.2,0.7c0,0.1,0,0.2,0.1,0.3c0.1,0.1,0.2,0.2,0.2,0.3c0.1,0.2,0.2,0.5,0.3,0.7
				c0.1,0.6,0,1.2-0.2,1.7c-0.4,1.1-1.1,2.1-1.9,3c-0.2,0.2-0.4,0.5-0.6,0.7c-0.1,0.1-0.2,0.2-0.3,0.3c-0.1,0.1-0.2,0.2-0.3,0.3
				c-0.1,0.1-0.2,0.3-0.3,0.4c0,0-0.1,0.1-0.1,0.1c0,0.1,0,0.2,0,0.2c0,0.1-0.1,0.3-0.2,0.4c-0.1,0.1-0.2,0.1-0.2,0.2
				c0,0.2,0,0.3-0.1,0.4c-0.1,0.1-0.2,0.2-0.3,0.3c0,0.1,0,0.2,0.1,0.2c0,0,0,0,0,0c0-0.1-0.1-0.2-0.1-0.2c-0.2,0.1-0.5,0.2-0.7,0.1
				c-0.1,0-0.2-0.1-0.3-0.1c-0.1,0-0.2,0-0.3,0c-0.2,0-0.5,0-0.7,0c-0.3,0-0.5,0.1-0.8,0c-0.1,0-0.1,0-0.1,0.1
				c-0.2,0.3-0.7,0.4-1,0.5c-0.4,0.1-0.7,0.2-1.1-0.1c0,0-0.1,0-0.2,0c-0.4,0.4-1.1,0.3-1.4-0.2c0,0-0.1-0.1-0.1-0.1
				c-0.3,0.1-0.6,0.2-0.8,0.2c-0.1,0-0.3,0-0.4,0c0,0-0.1,0-0.1,0c-0.1,0-0.1,0.1-0.2,0.1c-0.5,0.2-1,0.2-1.6,0.2
				c-0.5,0-1.1-0.1-1.6-0.1c-0.3,0-0.5,0-0.8,0c-0.2,0-0.5,0-0.7,0c-0.2,0-0.1,0.3,0.1,0.2c0,0,0.1,0,0.1,0c0-0.1,0-0.2,0-0.2
				c-0.4,0.1-0.7,0.1-1-0.1C272.6,299,272.5,298.6,272.7,298.2c0.1-0.1-0.1-0.3-0.2-0.1c-0.2,0.5-0.2,1,0.2,1.4
				c0.2,0.2,0.4,0.3,0.6,0.3c0.2,0,0.5,0,0.7-0.1c0.1,0,0.1-0.3,0-0.2c0,0-0.1,0-0.1,0c0,0.1,0,0.2,0.1,0.2c0.1,0,0.2,0,0.3,0
				c0.1,0,0.3,0,0.4,0c0.3,0,0.6,0,0.8,0c0.5,0,1.1,0.1,1.6,0.1c0.5,0,1.1,0,1.5-0.2c0,0,0.1-0.1,0.1-0.1c0.1,0,0.1,0,0.2,0
				c0.1,0,0.3,0,0.4,0c0.3,0,0.5-0.1,0.8-0.2c0,0-0.1,0-0.1-0.1c0.3,0.7,1.2,0.8,1.8,0.3c-0.1,0-0.1,0-0.2,0
				c0.2,0.1,0.4,0.2,0.6,0.2c0.2,0,0.5,0,0.7-0.1c0.4-0.1,0.9-0.2,1.2-0.6c0,0-0.1,0-0.1,0.1c0.3,0.1,0.5,0,0.8,0c0.3,0,0.6,0,0.9,0
				c0.1,0,0.2,0.1,0.3,0.1c0.1,0,0.2,0.1,0.4,0.1c0.2,0,0.5-0.1,0.7-0.2c0.1-0.1,0-0.3-0.1-0.2c0,0,0,0,0,0
				c-0.1,0.1-0.1,0.3,0.1,0.2c0.4-0.2,0.6-0.5,0.7-1c0,0,0,0.1-0.1,0.1c0.3-0.2,0.5-0.4,0.6-0.7c0-0.1,0-0.1,0-0.2
				c0-0.1,0.1-0.2,0.2-0.2c0.1-0.2,0.2-0.3,0.3-0.5c0.5-0.5,0.9-1,1.4-1.6c0.8-1.1,1.6-2.3,1.7-3.7c0-0.7-0.2-1.4-0.7-1.9
				c0,0,0,0.1,0,0.1c0.1-0.5-0.2-1-0.7-1.2c0,0,0,0,0.1,0.1c-0.2-0.8-0.8-1.5-1.3-2.2c-0.2-0.3-0.4-0.7-0.8-0.9
				c-0.3-0.1-0.6-0.1-0.9,0c0,0,0.1,0,0.1,0c-0.4-0.3-0.8-0.7-1.3-1c-0.2-0.1-0.5-0.3-0.7-0.3c-0.1,0-0.3-0.1-0.4-0.1
				c-0.2,0-0.3-0.1-0.5-0.2c-1.2-0.4-2.5-0.6-3.8-0.4c-0.3,0.1-0.7,0.2-1,0.2c-0.4,0-0.7,0-1.1,0c-0.7,0-1.4,0-2.1,0
				c-0.7,0-1.4-0.2-2.1-0.3c-0.3,0-0.7-0.1-1-0.1c-0.3,0-0.6-0.1-0.8,0c-0.5,0.2-0.8,0.7-0.8,1.2c0,0.5,0.3,1.1,0.9,1.2
				c0-0.1-0.1-0.1-0.1-0.2c0,0.2,0,0.3,0,0.5c0,0.2,0,0.4-0.1,0.6c-0.1,0.4-0.2,0.8-0.3,1.1c-0.2,0.8-0.3,1.6-0.3,2.4
				c0,0.8,0,1.6,0,2.4c0,0.7,0,1.5,0.1,2.2c0.1,0.8,0.2,1.6,0.6,2.4c0,0,0-0.1,0-0.1c-0.1,0.3-0.1,0.6,0,0.9c0,0,0-0.1,0-0.1
				c0,0.1-0.1,0.1-0.1,0.2C272.4,298.2,272.6,298.3,272.7,298.2z"/>
			<path class="st1" d="M291.8,320.2c-0.2,0.5-0.5,0.9-0.9,1.2c-0.2,0.2-0.3,0.4-0.4,0.6c-0.2,0.2-0.3,0.4-0.5,0.6
				c-0.7,0.8-1.5,1.5-2.3,2c-0.2,0.1-0.5,0.3-0.7,0.4c-0.1,0.1-0.3,0.1-0.4,0.2c0,0-0.1,0.1-0.1,0.1c-0.1,0.1-0.1,0.1-0.2,0.2
				c-0.1,0.1,0,0.3,0.2,0.2c0,0,0.1-0.1,0.1-0.1c-0.1,0-0.1-0.1-0.2-0.1c0,0,0,0,0,0c0,0,0-0.1,0-0.1c-0.2,0.1-0.3,0.3-0.5,0.4
				c-0.1,0.1-0.3,0.1-0.4,0.2c-0.1,0-0.3,0.1-0.5,0c0,0-0.1,0-0.2,0c-0.5,0.6-1.4,0.6-2,0.1c-0.1-0.1-0.1,0-0.2,0
				c-0.5,0.7-1.5,0.8-2.2,0.2c-0.1,0-0.1-0.1-0.2,0c-0.3,0.3-0.7,0.5-1.1,0.5c-0.5,0-0.9-0.3-1.1-0.7c0-0.1-0.1-0.1-0.2,0
				c-0.5,0.6-1.4,0.6-2,0c-0.1,0-0.2-0.1-0.2,0c-0.2,0.3-0.5,0.5-0.8,0.5c-0.4,0-0.7-0.3-0.8-0.6c-0.4-0.7-0.4-1.5-0.4-2.3
				c0-0.4,0-0.8,0-1.2c0-0.5-0.1-0.9-0.2-1.4c-0.2-1-0.3-2-0.4-3c0-0.5-0.1-1,0-1.5c0-0.2,0.1-0.4,0.2-0.6c0.1-0.1,0.1-0.2,0.2-0.3
				c0.1-0.1,0.2-0.1,0.2-0.2c0-0.1,0-0.2,0-0.3c0-0.1,0-0.2,0-0.3c0-0.1,0.1-0.2,0-0.3c0-0.1-0.1-0.2-0.1-0.3
				c-0.1-0.2,0-0.5,0.1-0.7c0-0.1,0.1-0.1,0-0.2c0-0.1-0.1-0.1-0.1-0.2c-0.2-0.5,0-1.2,0.6-1.2c0.2,0,0.4,0,0.6,0c0.1,0,0.2,0,0.3,0
				c0.1,0,0.2-0.1,0.4-0.1c0.4-0.1,0.9,0,1.4,0c0.5,0,1.1,0,1.6,0c0.1,0,0.3,0,0.4,0c0.1,0,0.1,0,0.2,0c0.1,0,0.1,0,0.2,0
				c0.3-0.1,0.6-0.1,0.9-0.1c1.1-0.1,2.3-0.1,3.4,0.2c0,0,0.1,0,0.1,0c0.2-0.2,0.4-0.4,0.7-0.4c0.3,0,0.6,0.2,0.7,0.4
				c0.1,0.1,0.1,0.2,0.2,0.2c0.1,0,0.3,0.1,0.4,0.1c0.3,0.1,0.6,0.3,0.8,0.5c0,0,0.1,0,0.2,0c0.3-0.3,0.7-0.3,1.1-0.1
				c0.2,0.1,0.4,0.3,0.5,0.5c0.1,0.1,0.3,0.3,0.4,0.4c0.6,0.5,1.1,1.1,1.5,1.8c0.2,0.4,0.3,0.8,0.2,1.3c0,0.1,0,0.1,0.1,0.2
				c0.3,0.1,0.6,0.3,0.7,0.7c0.1,0.4,0,0.9-0.1,1.3c0,0,0,0.1,0.1,0.1C291.7,319.1,292,319.7,291.8,320.2c-0.1,0.1,0.2,0.3,0.2,0.1
				c0.3-0.6,0-1.3-0.6-1.6c0,0,0,0.1,0.1,0.1c0.1-0.5,0.2-1.1,0-1.5c-0.1-0.4-0.5-0.6-0.9-0.8c0,0.1,0.1,0.1,0.1,0.2
				c0.1-0.9-0.3-1.7-0.8-2.3c-0.3-0.4-0.6-0.7-0.9-1c-0.2-0.2-0.3-0.3-0.5-0.5c-0.2-0.2-0.4-0.4-0.6-0.5c-0.4-0.2-1-0.1-1.3,0.2
				c0.1,0,0.1,0,0.2,0c-0.2-0.1-0.4-0.3-0.7-0.4c-0.2-0.1-0.4-0.2-0.7-0.3c0,0,0.1,0.1,0.1,0.1c-0.2-0.4-0.4-0.7-0.9-0.7
				c-0.4-0.1-0.8,0.1-1.1,0.4c0,0,0.1,0,0.1,0c-0.9-0.2-1.8-0.3-2.8-0.2c-0.5,0-0.9,0.1-1.3,0.2c-0.1,0-0.2,0-0.3,0.1
				c-0.1,0-0.2,0-0.3,0c-0.2,0-0.5,0-0.7-0.1c-0.4,0-0.9,0-1.3,0c-0.4,0-0.8,0-1.3,0c-0.1,0-0.2,0-0.3,0.1c-0.1,0-0.2,0-0.3,0
				c-0.2,0-0.5,0-0.7,0c-0.3,0-0.5,0.1-0.7,0.3c-0.4,0.4-0.4,1.1-0.1,1.5c0,0,0-0.1,0-0.1c-0.2,0.4-0.2,0.9,0,1.3c0,0,0-0.1,0-0.1
				c-0.1,0.3-0.1,0.6,0,1c0,0,0-0.1,0-0.1c-0.3,0.3-0.5,0.7-0.6,1.2c-0.1,0.5-0.1,1,0,1.5c0.1,1.1,0.2,2.1,0.4,3.1
				c0.1,0.5,0.2,1,0.2,1.6c0,0.4,0,0.8,0,1.2c0,0.8,0.1,1.6,0.6,2.3c0.3,0.3,0.6,0.5,1,0.5c0.4,0,0.8-0.2,0.9-0.6
				c-0.1,0-0.1,0-0.2,0c0.7,0.6,1.7,0.6,2.3,0c-0.1,0-0.1,0-0.2,0c0.3,0.4,0.8,0.7,1.3,0.8c0.5,0,1-0.2,1.3-0.5c-0.1,0-0.1,0-0.2,0
				c0.4,0.3,0.8,0.5,1.3,0.5c0.5,0,1-0.3,1.3-0.7c-0.1,0-0.1,0-0.2,0c0.7,0.6,1.7,0.6,2.3-0.1c-0.1,0-0.1,0-0.2,0
				c0.3,0.2,0.8,0,1.1-0.2c0.2-0.1,0.3-0.2,0.5-0.3c0.1,0,0.1-0.1,0.1-0.2c0-0.1-0.1-0.2-0.2-0.1c0,0-0.1,0.1-0.1,0.1
				c0.1,0.1,0.1,0.1,0.2,0.2c0.1-0.1,0.2-0.2,0.3-0.2c0.1-0.1,0.2-0.1,0.3-0.1c0.2-0.1,0.5-0.2,0.7-0.3c0.5-0.3,0.9-0.6,1.3-0.9
				c0.4-0.3,0.8-0.7,1.1-1.1c0.2-0.2,0.3-0.4,0.5-0.6c0.1-0.1,0.2-0.2,0.2-0.3c0.1-0.1,0.1-0.2,0.2-0.3c0.1-0.1,0.2-0.2,0.3-0.3
				c0.1-0.1,0.2-0.2,0.3-0.3c0.2-0.2,0.3-0.5,0.4-0.7C292.1,320.2,291.8,320,291.8,320.2z"/>
		</g>
	</g>
	<path class="st2" d="M272.5,283.5v16c0,0,15,0,14-1c0,0,7.5-4.8,3.4-10.9c-1.8-2.6-4.8-4.1-8-4.1H272.5z"/>
	<path class="st2" d="M273.5,311.5v15h8.9c3,0,5.9-1.2,7.7-3.6c1.4-1.8,2.2-4.2,0.6-7c-1.6-2.8-4.7-4.4-7.9-4.4H273.5z"/>
	<g>
		<g>
			<path class="st1" d="M316.7,331.8c0.2,0,0.2-0.3,0-0.3C316.6,331.6,316.6,331.8,316.7,331.8L316.7,331.8z"/>
		</g>
	</g>
	<g>
		<g>
			<path class="st1" d="M316.5,277.3c0.2,0,0.2-0.3,0-0.3C316.3,277.1,316.3,277.3,316.5,277.3L316.5,277.3z"/>
		</g>
	</g>
	<path class="st3" d="M317.4,327.7c0.1,3.1-0.1,6.7,2.1,8.8c2.4,2.3,7,4,12,4h22.7c3.3,0,6.5-1.2,8.8-3.6c2-2.1,3.5-5.4,1.5-10.4
		c0,0-1-7.8-22.2-5.1c-0.5,0.1-1-0.1-1.3-0.4l0,0c-0.3-0.3-0.5-0.7-0.5-1.1v-6.3c0,0,0,0,0,0h13.8c2.9,0,5.8-1.3,7.5-3.6
		c1.8-2.4,3.8-5.9,0.8-10.4c0,0-2-6-22-4c0,0,0,0,0,0l0-6c0,0,0,0,0,0h17c0,0,0,0,0,0c0.4-0.1,11.4-3,6.2-16.6
		c-0.1-0.3-0.4-0.4-0.6-0.7c-1.6-2.7-7.6-2.7-15.5-2.7c-0.1,0-0.2,0-0.3,0h-20.9c0,0-9-1-10,13C315.7,293.6,317.2,318.4,317.4,327.7
		z"/>
	<path class="st3" d="M369.6,329.9l8.3-49c0.5-2.8,1.8-5.3,3.8-7.3c3.2-3,8.6-6.4,15.7-4.4c3.3,0.9,6,3.3,7.5,6.4
		c1.2,2.6,2.8,6.6,4.6,12.8c4,14,5,15,5,15l7-24c0,0,1.3-9.1,10-11c9-2,14,3,14,3s5,2,6,16c0,0,0,0,0,0l7,42c0,0,1,6-5,10
		s-14,0-16-4s-4-32-4-32s0-1-1,0c-0.9,0.9-7.9,25.5-9.6,31.6c-0.3,1.2-0.9,2.3-1.7,3.2c-2,2.3-6.4,5.6-12.4,1.1
		c-1.4-1-2.5-2.5-3-4.2l-10.3-31.8c0,0-1-1-1,0s-3,29-3,29s-1,9-12,8c-8.7-0.8-9.9-6.5-10-8.9C369.5,331,369.5,330.5,369.6,329.9z"
		/>
</g>
</svg>
